<?xml version="1.0" standalone="no"?>
<!DOCTYPE svg PUBLIC "-//W3C//DTD SVG 20010904//EN"
 "http://www.w3.org/TR/2001/REC-SVG-20010904/DTD/svg10.dtd">
<svg version="1.0" xmlns="http://www.w3.org/2000/svg"
 width="1952.000000pt" height="252.000000pt" viewBox="0 0 1952.000000 252.000000"
 preserveAspectRatio="xMidYMid meet">

<g transform="translate(0.000000,252.000000) scale(0.100000,-0.100000)"
fill="#000000" stroke="none">
<path d="M11915 2510 c-117 -24 -240 -93 -321 -182 l-50 -56 -150 -6 c-426
-19 -698 -68 -921 -164 -330 -143 -502 -379 -532 -731 -17 -196 17 -418 85
-554 57 -114 178 -253 264 -304 16 -9 30 -20 30 -23 0 -3 -67 -104 -150 -225
-82 -120 -150 -224 -150 -230 0 -35 21 -36 587 -33 546 3 559 4 624 25 87 30
181 91 249 163 l55 58 220 11 c420 21 695 79 915 192 236 121 380 297 442 545
19 77 23 114 22 269 0 162 -3 190 -27 277 -36 135 -96 247 -181 336 -66 70
-154 142 -172 142 -5 0 -45 -53 -89 -117 -238 -349 -224 -319 -184 -371 40
-52 63 -151 63 -267 0 -267 -106 -395 -384 -463 -137 -34 -237 -43 -555 -51
-276 -7 -304 -9 -357 -30 -84 -32 -143 -92 -258 -261 -121 -175 -102 -167
-282 -121 -151 39 -354 121 -372 150 -3 5 55 98 130 208 75 109 141 207 146
218 7 16 1 34 -27 80 -48 80 -56 112 -62 234 -11 222 61 358 230 436 155 72
312 94 717 104 279 7 310 9 360 29 84 33 137 87 254 256 123 179 104 170 261
132 125 -31 228 -67 329 -118 43 -22 79 -38 81 -36 47 57 295 438 295 454 0
12 -7 25 -16 28 -23 9 -1073 5 -1119 -4z"/>
<path d="M17835 2294 c-458 -35 -696 -103 -847 -242 -103 -96 -148 -208 -148
-368 1 -281 133 -443 432 -528 142 -41 280 -54 933 -91 341 -19 636 -39 655
-45 80 -23 110 -57 110 -125 0 -85 -51 -123 -195 -146 -102 -16 -593 -16 -810
0 -270 20 -684 79 -921 131 -49 10 -89 18 -90 17 -9 -8 -74 -411 -69 -426 3
-10 14 -26 24 -35 34 -31 423 -94 816 -133 133 -13 276 -17 550 -18 370 0 487
7 675 41 395 71 570 239 570 549 0 357 -217 556 -664 610 -67 8 -362 28 -656
45 -697 39 -749 46 -790 97 -30 38 -28 116 4 148 52 52 101 58 486 63 460 5
816 -17 1200 -75 96 -14 188 -26 204 -27 l29 -1 39 183 c22 102 37 194 34 208
-4 13 -16 30 -29 38 -40 27 -392 79 -742 111 -159 15 -689 27 -800 19z"/>
<path d="M0 1315 l0 -976 1083 4 c1061 3 1084 4 1195 25 440 85 663 303 728
713 25 156 15 439 -19 569 -45 171 -108 282 -216 383 -150 138 -363 218 -660
247 -62 6 -505 10 -1107 10 l-1004 0 0 -975z m2128 452 c221 -59 303 -200 289
-497 -7 -162 -32 -236 -107 -311 -44 -44 -69 -60 -120 -77 -123 -41 -174 -43
-995 -40 l-790 3 -2 25 c-2 19 7 32 40 55 23 17 57 52 74 79 59 86 63 117 63
448 0 287 1 299 20 318 21 21 26 21 743 17 638 -3 729 -5 785 -20z"/>
<path d="M3477 2283 c-4 -3 -7 -442 -7 -975 l0 -968 1305 0 1305 0 0 225 0
225 -1098 0 c-841 0 -1101 3 -1110 12 -22 22 -13 38 42 73 30 19 68 51 85 72
31 37 61 116 61 159 0 12 7 25 16 28 9 3 273 6 587 6 638 0 613 -2 686 71 55
54 71 101 71 207 l0 92 -769 0 c-663 0 -770 2 -781 15 -18 22 -11 30 65 82 75
52 112 107 122 182 l6 41 1008 0 1009 0 0 230 0 230 -1298 0 c-714 0 -1302 -3
-1305 -7z"/>
<path d="M6492 2281 c2 -5 284 -444 628 -975 l625 -965 390 -1 391 0 622 961
c343 528 626 967 629 975 4 12 -47 14 -351 14 l-356 0 -53 -82 c-29 -46 -235
-377 -457 -736 l-405 -652 -180 2 c-146 2 -180 6 -180 17 0 8 9 19 20 25 73
39 98 61 116 99 22 51 24 96 4 143 -8 19 -173 293 -366 609 l-353 575 -364 0
c-218 0 -362 -4 -360 -9z"/>
<path d="M13627 2283 c-4 -3 -7 -442 -7 -975 l0 -968 295 0 295 0 0 238 c0
172 3 241 12 250 9 9 189 12 747 12 610 0 752 3 829 15 262 43 436 155 527
340 61 122 78 207 78 390 0 132 -4 174 -21 236 -75 275 -269 419 -617 459
-100 11 -2127 15 -2138 3z m2058 -516 c87 -39 119 -95 118 -209 -1 -137 -64
-201 -220 -219 -43 -5 -405 -8 -817 -7 -662 3 -740 5 -749 19 -8 13 5 31 65
90 88 87 117 149 125 272 l6 78 716 -3 c665 -3 719 -4 756 -21z"/>
</g>
</svg>
